# xmcd
#
# Track frame offsets: 
#        150
#        11399
#        23312
#        34903
#        48923
#        61876
#        74360
#        84544
#        95858
#        108697
#        118292
#        130748
#        140521
#        154158
#        166187
#        177224
#        188563
#        201154
#        210308
#        222282
#        232706
#        245111
#        257512
#        269844
#        284067
#        295390
#        306448
#        317673
#        330669
#        342387
#
# Disc length: 4711 seconds
#
# Revision: 1
# Processed by: cddbd v1.5.2PL0 Copyright (c) Steve Scherf et al.
# Submitted via: ExactAudioCopy v1.3
#
DISCID=c512651e
DTITLE=Various Artist - Dim Lights, Thick Smoke And Hillbilly Music 1956
DYEAR=2011
DGENRE=Country
TTITLE0=Marty Robbins - Singing The Blues
TTITLE1=Eddy Arnold - You Don't Know Me
TTITLE2=Ray Price - Crazy Arms
TTITLE3=Carl Belew - Lonely Street
TTITLE4=Johnny Cash and The Tennessee Two - Folsom Prison Blues
TTITLE5=Faron Young - Sweet Dreams
TTITLE6=Johnny Horton - Honky Tonk Man
TTITLE7=Hank Snow - Conscience I'm Guilty
TTITLE8=George Jones - What Am I Worth
TTITLE9=Benny Barnes - A Poor Man's Riches
TTITLE10=Jim Edward And Maxine Brown And Bonnie - I Take The Chance
TTITLE11=Louvin Brothers - I Don't Believe You've Met My Baby
TTITLE12=The Osborne Brothers And Red Allen - Ruby, Are You Mad?
TTITLE13=Don Reno and Red Smiley - I Know You're Married
TTITLE14=Porter Wagoner - Eat, Drink And Be Merry (Tomorrow You'll Cry
TTITLE14=)
TTITLE15=Webb Pierce - Yes I Know Why
TTITLE16=Johnny Cash and The Tennessee Two - I Walk The Line
TTITLE17=Johnny Horton - I'm A One Woman Man
TTITLE18=Wanda Jackson - Silver Threads And Golden Needles
TTITLE19=Hank Thompson - The Blackboard Of My Heart
TTITLE20=Ray Price - I've Got A New Heartache
TTITLE21=George Jones - Just One More
TTITLE22=Louvin Brothers - Cash On The Barrelhead
TTITLE23=Wynn Stewart - Waltz Of The Angels
TTITLE24=Jim Reeves - According To My Heart
TTITLE25=Kitty Wells - Searching (For Someone Else)
TTITLE26=Marty Robbins - I Can't Quit (I've Gone Too Far)
TTITLE27=Hank Snow - These Hands
TTITLE28=Billy Mize - Who Will Buy The Wine
TTITLE29=Carl Perkins - Dixie Fried
EXTD=
EXTT0=
EXTT1=
EXTT2=
EXTT3=
EXTT4=
EXTT5=
EXTT6=
EXTT7=
EXTT8=
EXTT9=
EXTT10=
EXTT11=
EXTT12=
EXTT13=
EXTT14=
EXTT15=
EXTT16=
EXTT17=
EXTT18=
EXTT19=
EXTT20=
EXTT21=
EXTT22=
EXTT23=
EXTT24=
EXTT25=
EXTT26=
EXTT27=
EXTT28=
EXTT29=
PLAYORDER=
